<svg xmlns="http://www.w3.org/2000/svg" width="71.199" height="52.63" viewBox="0 0 71.199 52.63">
  <g id="Group_322" data-name="Group 322" transform="translate(-177.154 -34.112)">
    <path id="Path_427" data-name="Path 427" d="M204.591,50.42c-5.228-8.115-16.536-8.444-27.437-1.08,12.768-6.6,21.547-5.485,26.327,2.153,1.846,2.949,2.4,6.432.421,9.771C207.037,58.359,206,52.611,204.591,50.42Z" fill="#dfba7f" fill-rule="evenodd"/>
    <g id="Group_321" data-name="Group 321">
      <g id="Group_319" data-name="Group 319">
        <g id="Group_317" data-name="Group 317">
          <path id="Path_428" data-name="Path 428" d="M214.511,57.022c.489.171,8.847-6.637,6.006-11.085s-1.491-4.413-.739-6.111C212.549,46.116,218.651,50.125,214.511,57.022Z" fill="#dfba7f" fill-rule="evenodd"/>
          <path id="Path_429" data-name="Path 429" d="M220.9,55.455c-.166-.621,10.451-9.742,16.184-5.666s5.88,2.448,8.33,1.783C235.683,59.4,231.029,51.441,220.9,55.455Z" fill="#dfba7f" fill-rule="evenodd"/>
          <path id="Path_430" data-name="Path 430" d="M224.332,49.121c-.149-.082.616-3.655.41-5.711-.312-3.062.549-5.561,4.092-5.86,4.547-.387,5.526-2.1,6.282-3.438,1.045,7.2-3.392,8.424-7.439,10.763C226.382,45.623,225.6,46.5,224.332,49.121Z" fill="#dfba7f" fill-rule="evenodd"/>
        </g>
        <g id="Group_318" data-name="Group 318">
          <path id="Path_431" data-name="Path 431" d="M230,76.947c-1.961-1.238-4.058.529-4.476,2.168-.794,3.771,3.367,6.918,7.319,7.237,6.409.352,12.493-4.011,14.312-9,3.248-7.946-2.493-15.953-11.33-19.046-6.646-2.505-14.146-1.757-20.744.928a29.818,29.818,0,0,1,10.5-2.717c5.569-.514,16.015,1.741,20.566,9.062,3.909,6.288,2.71,14.123-4.318,18.705-4.737,2.912-11.607,3.694-15.686-.2-1.873-1.906-2.7-4.863-.581-6.946C226.744,76.069,228.882,75.592,230,76.947Z" fill="#dfba7f" fill-rule="evenodd"/>
          <path id="Path_432" data-name="Path 432" d="M227.086,76.628a1.937,1.937,0,0,0-.439,2.826,2.261,2.261,0,0,0,3.022.416,1.931,1.931,0,0,0,.44-2.827A2.254,2.254,0,0,0,227.086,76.628Z" fill="#dfba7f" fill-rule="evenodd"/>
        </g>
        <path id="Path_433" data-name="Path 433" d="M206.1,54.98c1.806-.091,4.8-1.743,3.526-5.235.918,3.513-1.608,4.813-3.477,4.731a6.821,6.821,0,0,1-5.872-3.9,8.768,8.768,0,0,1-.64-4.876,5.081,5.081,0,0,1,6.295-4.079,7.993,7.993,0,0,1,2.369.944,10.826,10.826,0,0,1,5.017,11.685c-1.365,6.833-8.2,9.726-15.152,10.641,10.738.157,18.735-8.125,15.7-16.58a11.809,11.809,0,0,0-9.182-7.534C195.34,40.1,196.882,55.431,206.1,54.98Z" fill="#dfba7f" fill-rule="evenodd"/>
        <path id="Path_434" data-name="Path 434" d="M210.292,61.446c10.508-4.113,21.387,3.561,17.89,5.964-2.148.9-2.145-.918-7.163-4.291A13.791,13.791,0,0,0,210.292,61.446Z" fill="#dfba7f" fill-rule="evenodd"/>
        <path id="Path_435" data-name="Path 435" d="M218.7,59.044c2.8-1.013,6.463-1.011,7.9-.054,1.154.77.543,2.732-1.333,2.07-1.172-.415-2.134-1.227-3.246-1.678A5.632,5.632,0,0,0,218.7,59.044Z" fill="#dfba7f" fill-rule="evenodd"/>
        <path id="Path_436" data-name="Path 436" d="M214.037,66.859c1.224-.489,4.044-.51,5.036,1.685a3.635,3.635,0,0,0-4.742-1.439,3.052,3.052,0,0,0-1.79,3.768,6.235,6.235,0,0,0,2.133,2.731,5.476,5.476,0,0,0,6.243.265,3.87,3.87,0,0,0,1.048-1.2c1.475-2.683-.069-5.715-2.841-7.567-4.466-3.156-10.436-2.644-15.448-1.065,6.919-3.257,16.469-1.306,18.91,4a5.128,5.128,0,0,1-2.047,6.64C214.807,77.793,207.793,69.345,214.037,66.859Z" fill="#dfba7f" fill-rule="evenodd"/>
      </g>
      <g id="Group_320" data-name="Group 320">
        <path id="Path_437" data-name="Path 437" d="M199.78,65.932c1.208.748,2.847-.3,4.416-1.066,1.865-.91,5.362.731,4.045,3.3.763-2.863-3.939-.2-4.765-.1C202.249,68.219,200.681,67.18,199.78,65.932Z" fill="#dfba7f" fill-rule="evenodd"/>
        <path id="Path_438" data-name="Path 438" d="M192.457,64.841c1.965.393,3.182,2.474,4.517,4.278,1.583,2.15,6.9,3.677,7.139.721-1.1,2.735-4.834-2.957-5.749-3.682A8.966,8.966,0,0,0,192.457,64.841Z" fill="#dfba7f" fill-rule="evenodd"/>
      </g>
    </g>
  </g>
</svg>
