<svg xmlns="http://www.w3.org/2000/svg" width="81.506" height="22.245" viewBox="0 0 81.506 22.245">
  <g id="Group_316" data-name="Group 316" transform="translate(-195.928 -103.592)">
    <path id="Path_419" data-name="Path 419" d="M249.525,113.3c2.636-3.868,6.813-3.18,11.957-2.277,2.559.448,5.938,1.01,8.108.733,1.289-.17,7.84-1.437,7.844-7.919-.694,6.278-7.084,6.57-8.157,6.648-4.646.329-7.2-.5-10.4-.763C253.524,109.295,251.231,110.408,249.525,113.3Z" fill="#dfba7f" fill-rule="evenodd"/>
    <path id="Path_420" data-name="Path 420" d="M223.839,113.053c-2.634-3.864-6.809-3.178-11.951-2.28-2.562.453-5.941,1.017-8.112.736-1.286-.169-7.839-1.432-7.848-7.917.7,6.276,7.088,6.577,8.16,6.65,4.647.329,7.2-.509,10.408-.764C219.841,109.048,222.139,110.158,223.839,113.053Z" fill="#dfba7f" fill-rule="evenodd"/>
    <g id="Group_313" data-name="Group 313">
      <path id="Path_421" data-name="Path 421" d="M249.15,117.72c-.311-.378-.645-.841-.278-1.357.287-.411.915-.326,1.425-.073,2.645,2.205-2.182,5.213-3.931,1.368-1.184-2.143,2.18-5.92,2.569-6.221-8.788,6.477-.288,11.872,2.6,8.025a2.557,2.557,0,0,0,.524-2.214,2.308,2.308,0,0,0-2.668-1.657C248.123,115.9,247.91,117.273,249.15,117.72Z" fill="#dfba7f" fill-rule="evenodd"/>
      <g id="Group_312" data-name="Group 312">
        <path id="Path_422" data-name="Path 422" d="M244.994,114.59c-4.807,4.818-2.4,12.363-.153,10.985,1.016-.975-.111-1.357-1.117-4.807A7.165,7.165,0,0,1,244.994,114.59Z" fill="#dfba7f" fill-rule="evenodd"/>
        <path id="Path_423" data-name="Path 423" d="M241.9,117.623c-1.484.815-3.2,2.28-3.422,3.256-.146.623.594,1.01,1.052.986,1-.114,1.053-1.513,1.206-2.455C240.837,118.775,241.465,118.22,241.9,117.623Z" fill="#dfba7f" fill-rule="evenodd"/>
      </g>
    </g>
    <g id="Group_315" data-name="Group 315">
      <path id="Path_424" data-name="Path 424" d="M224.734,117.819c.314-.378.644-.839.279-1.363-.286-.409-.915-.321-1.423-.069-2.649,2.2,2.178,5.212,3.929,1.364,1.181-2.137-2.183-5.914-2.566-6.219,8.787,6.481.284,11.877-2.6,8.03a2.58,2.58,0,0,1-.53-2.22,2.317,2.317,0,0,1,2.673-1.655C225.765,116,225.975,117.368,224.734,117.819Z" fill="#dfba7f" fill-rule="evenodd"/>
      <g id="Group_314" data-name="Group 314">
        <path id="Path_425" data-name="Path 425" d="M228.892,114.69c4.8,4.815,2.393,12.364.15,10.981-1.017-.969.112-1.358,1.119-4.8A7.17,7.17,0,0,0,228.892,114.69Z" fill="#dfba7f" fill-rule="evenodd"/>
        <path id="Path_426" data-name="Path 426" d="M231.991,117.72c1.481.812,3.2,2.272,3.425,3.256.142.621-.6,1.011-1.058.991-1-.115-1.05-1.518-1.205-2.456C233.05,118.873,232.419,118.319,231.991,117.72Z" fill="#dfba7f" fill-rule="evenodd"/>
      </g>
    </g>
  </g>
</svg>
