<svg xmlns="http://www.w3.org/2000/svg" width="76.542" height="76.614" viewBox="0 0 76.542 76.614">
  <g id="Group_143" data-name="Group 143" transform="translate(-328.656 658.345) rotate(-90)">
    <g id="Group_133" data-name="Group 133">
      <path id="Path_197" data-name="Path 197" d="M635.4,386.736a15.9,15.9,0,0,0-3.07-3.127,11.826,11.826,0,0,0-2.176-1.293c-2.874-1.7-6.218-2.621-9.464-1.292-4.251,1.739-5.544,6.779-3.924,10.811s5.92,7.321,10.406,6.255c3.672-.873,6.157-4.962,4.06-8.409-.1-.161-.4-.054-.319.134,1.733,4.109-1.333,7.982-5.656,7.936-4.086-.044-7.574-3.73-8.455-7.527a7.419,7.419,0,0,1,6.686-9.333,10.189,10.189,0,0,1,4.234.661,8.1,8.1,0,0,0-2.379-.066c-4.217.526-7.628,5.094-4.941,9.026.828,1.212,2.539,2.36,4.075,1.809,1.177-.422,2.023-2.2.663-2.993-.881-.514-2.233.318-1.817,1.384a.894.894,0,0,0,.671.585c-1.279.942-2.623-.172-3.306-1.269a5.093,5.093,0,0,1-.74-2.515,5.249,5.249,0,0,1,2.274-4.271c3.222-2.4,7.48-1.256,10.359,1.132,2.1,1.743,3.168,4.079,4.832,6.147.911,1.134,2.244,1.894,3.549.909a.079.079,0,0,0-.08-.136C638.274,392.688,636.557,388.25,635.4,386.736Z" fill="#dfba7f"/>
      <path id="Path_198" data-name="Path 198" d="M615.91,393.983a5.781,5.781,0,0,0,1.947,3.334c.866.767,2.3,1.74,3.506,1.36a.224.224,0,0,0,.1-.371c-.78-.7-1.93-.931-2.8-1.534a11.946,11.946,0,0,1-2.672-2.81C615.966,393.935,615.9,393.937,615.91,393.983Z" fill="#dfba7f"/>
      <path id="Path_199" data-name="Path 199" d="M619.848,404.807c-.82-.845-1.917-1.344-2.744-2.2a9.01,9.01,0,0,1-2.109-3.491c-.012-.038-.078-.034-.074.01a7.274,7.274,0,0,0,1.443,3.906c.777,1.015,1.97,2.147,3.322,2.169A.232.232,0,0,0,619.848,404.807Z" fill="#dfba7f"/>
      <path id="Path_200" data-name="Path 200" d="M640.7,388.8c.668,1.665,1.7,3.25,1.722,5.1a4.431,4.431,0,0,1-.977,3.005,2.848,2.848,0,0,1-1.765.9,1.342,1.342,0,0,1-.779-.005,1.191,1.191,0,0,1-1.087-.687,1.145,1.145,0,0,0,.829-2.1c-1.825-1.153-2.486,1.836-1.266,2.94,1.672,1.515,4.3.362,5.2-1.422,1.308-2.581-.069-5.759-1.725-7.822C640.8,388.635,640.668,388.711,640.7,388.8Z" fill="#dfba7f"/>
      <path id="Path_201" data-name="Path 201" d="M641.309,389.263a17.025,17.025,0,0,1,3.2,4.585c1,2.618.147,3.982-1.4,5.971a.273.273,0,0,0,.263.451c1.94-.449,2.575-2.77,2.378-4.545a6.589,6.589,0,0,0-.578-2.03,10.445,10.445,0,0,1,1.657,1.653,20.956,20.956,0,0,1,1.446,2.821c-.036.152.04.326.237.308a5.359,5.359,0,0,1,1.949.153c.58.163,1.06.526,1.628.7.006,0,.011,0,.017,0,.057.044.112.092.169.135.149.113.318-.125.2-.252-1.278-1.319-2.739-2.484-4.118-3.7a39.751,39.751,0,0,0-3.8-3.169c-.065-.044-.125.045-.085.1a16.288,16.288,0,0,0-3.095-3.25A.048.048,0,0,0,641.309,389.263Zm7.247,8.513a2.061,2.061,0,0,0,.21.166c-.084,0-.166.009-.245.016-.01-.076-.019-.152-.034-.228Zm.979.187a.26.26,0,0,0,.163-.146c.057.063.116.125.177.187C649.761,397.987,649.647,397.973,649.535,397.963Zm-4.721-5.154c-.047-.021-.1-.037-.144-.055-.062-.1-.123-.2-.188-.294C644.588,392.581,644.705,392.692,644.814,392.809Z" fill="#dfba7f"/>
      <path id="Path_202" data-name="Path 202" d="M619.131,399.748c-.035-.027-.087.026-.061.061,1.492,2,5.424,4.079,7.74,2.271a.233.233,0,0,0-.1-.388c-1.243-.235-2.529.05-3.8-.17A8.614,8.614,0,0,1,619.131,399.748Z" fill="#dfba7f"/>
      <path id="Path_203" data-name="Path 203" d="M612.721,400.372a6.026,6.026,0,0,0,.714-5.108c-.048-.152-.3-.133-.289.039a6.914,6.914,0,0,1-1.277,4.759,6.649,6.649,0,0,1-1.669,1.494c-.45.291-.649.346-.894.815a.17.17,0,0,0,.1.246C610.7,402.991,612.095,401.335,612.721,400.372Z" fill="#dfba7f"/>
      <path id="Path_204" data-name="Path 204" d="M614.224,392.657a14.962,14.962,0,0,0,2.186,7.122c2.365,3.761,7.232,6.423,11.652,4.872a.164.164,0,0,0-.087-.316c-8.3,1.259-13.414-5.9-13.22-13.222.1-.331.188-.658.265-.978a.144.144,0,0,0-.188-.162,14.29,14.29,0,0,1,1.32-4.742,9.857,9.857,0,0,1,11-5.659c4.76.859,8.127,4.3,11.652,7.3a.1.1,0,0,0,.14-.14c-3.466-3.848-8.1-7.647-13.509-7.877-4.583-.2-8.259,2.6-10.012,6.728a15.81,15.81,0,0,0-1.217,5.764c-1.3,3.051-2.719,6.305-6.084,7.492-2.384.841-5.526.1-6.376-2.573a3.444,3.444,0,0,1,.69-3.462,3.119,3.119,0,0,1,2.24-.876,1.883,1.883,0,0,1,2.125,1.748c-1.543-1.657-3.238,2.436-.646,2.172,1.591-.163,1.692-2.094.933-3.135a3.37,3.37,0,0,0-4.027-.84c-4.174,1.828-1.366,7.328,2.18,7.855C609.74,400.394,612.705,396.533,614.224,392.657Z" fill="#dfba7f"/>
      <path id="Path_205" data-name="Path 205" d="M581.731,398.832c.662.18,17.272-2.478,17.272-2.478l.984,2.663Z" fill="#dfba7f"/>
    </g>
    <g id="Group_134" data-name="Group 134">
      <path id="Path_206" data-name="Path 206" d="M639.882,382.327a15.9,15.9,0,0,1-3.126-3.07,11.885,11.885,0,0,1-1.294-2.175c-1.7-2.875-2.62-6.219-1.292-9.465,1.74-4.251,6.78-5.544,10.812-3.924s7.321,5.921,6.255,10.407c-.873,3.671-4.963,6.157-8.409,4.059-.161-.1-.054-.4.134-.319,4.108,1.733,7.981-1.332,7.935-5.656-.043-4.085-3.729-7.574-7.527-8.455a7.418,7.418,0,0,0-9.332,6.686,10.151,10.151,0,0,0,.661,4.234,8.07,8.07,0,0,1-.066-2.379c.525-4.217,5.094-7.627,9.026-4.941,1.212.829,2.359,2.539,1.809,4.076-.422,1.177-2.2,2.022-2.994.662-.514-.881.319-2.233,1.385-1.816a.893.893,0,0,1,.585.67c.942-1.279-.173-2.623-1.269-3.306a5.093,5.093,0,0,0-2.515-.74,5.249,5.249,0,0,0-4.271,2.274c-2.4,3.222-1.257,7.481,1.132,10.36,1.743,2.1,4.079,3.168,6.147,4.831,1.133.912,1.894,2.244.909,3.549a.079.079,0,0,1-.136-.079C645.835,385.2,641.4,383.481,639.882,382.327Z" fill="#dfba7f"/>
      <path id="Path_207" data-name="Path 207" d="M647.13,362.835a5.771,5.771,0,0,1,3.333,1.947c.767.865,1.741,2.3,1.361,3.5a.224.224,0,0,1-.371.1c-.7-.78-.931-1.929-1.535-2.8a11.982,11.982,0,0,0-2.809-2.672C647.082,362.89,647.084,362.829,647.13,362.835Z" fill="#dfba7f"/>
      <path id="Path_208" data-name="Path 208" d="M657.954,366.773c-.846-.821-1.344-1.918-2.2-2.744a9,9,0,0,0-3.49-2.11c-.038-.012-.034-.078.01-.074a7.293,7.293,0,0,1,3.906,1.443c1.014.777,2.147,1.97,2.169,3.323A.232.232,0,0,1,657.954,366.773Z" fill="#dfba7f"/>
      <path id="Path_209" data-name="Path 209" d="M641.942,387.626c1.665.668,3.249,1.7,5.1,1.723a4.441,4.441,0,0,0,3.005-.977,2.85,2.85,0,0,0,.9-1.766,1.334,1.334,0,0,0-.006-.779,1.187,1.187,0,0,0-.686-1.086,1.145,1.145,0,0,1-2.1.828c-1.152-1.825,1.836-2.486,2.941-1.266,1.515,1.673.362,4.3-1.423,5.2-2.58,1.307-5.758-.069-7.822-1.725A.093.093,0,0,1,641.942,387.626Z" fill="#dfba7f"/>
      <path id="Path_210" data-name="Path 210" d="M642.342,388.3a16.269,16.269,0,0,0,3.251,3.1c-.056-.04-.146.02-.1.085a40.028,40.028,0,0,0,3.168,3.8c1.214,1.379,2.379,2.839,3.7,4.117.127.123.364-.045.252-.194-.043-.058-.091-.113-.135-.17,0-.006,0-.011,0-.017-.173-.567-.536-1.048-.7-1.628a5.38,5.38,0,0,1-.152-1.949.229.229,0,0,0-.308-.237,20.96,20.96,0,0,1-2.821-1.446,10.44,10.44,0,0,1-1.653-1.656,6.617,6.617,0,0,0,2.029.578c1.776.2,4.1-.439,4.546-2.379a.272.272,0,0,0-.451-.262c-1.989,1.544-3.353,2.392-5.971,1.4a17.028,17.028,0,0,1-4.585-3.2A.048.048,0,0,0,642.342,388.3Zm8.534,7.11c.076.016.152.024.229.035-.007.078-.012.16-.016.244a2.346,2.346,0,0,0-.166-.21Zm.274,1.388q-.092-.09-.186-.177a.257.257,0,0,0,.146-.163C651.12,396.572,651.134,396.685,651.15,396.8Zm-5.543-5.393c.1.066.2.127.294.188.018.048.034.1.055.145C645.839,391.629,645.727,391.512,645.607,391.406Z" fill="#dfba7f"/>
      <path id="Path_211" data-name="Path 211" d="M652.9,366.055c-.027-.034.025-.086.06-.06,2,1.491,4.08,5.423,2.272,7.74a.234.234,0,0,1-.389-.1c-.234-1.243.05-2.528-.169-3.8A8.614,8.614,0,0,0,652.9,366.055Z" fill="#dfba7f"/>
      <path id="Path_212" data-name="Path 212" d="M653.519,359.645a6.027,6.027,0,0,1-5.108.714c-.152-.048-.133-.3.039-.288a6.911,6.911,0,0,0,4.758-1.278,6.616,6.616,0,0,0,1.495-1.669c.291-.449.346-.649.815-.893a.17.17,0,0,1,.246.1C656.138,357.623,654.482,359.019,653.519,359.645Z" fill="#dfba7f"/>
      <path id="Path_213" data-name="Path 213" d="M645.8,361.148a14.967,14.967,0,0,1,7.122,2.187c3.762,2.364,6.424,7.231,4.873,11.651a.164.164,0,0,1-.316-.087c1.259-8.3-5.9-13.413-13.223-13.219-.331.1-.658.188-.977.265a.144.144,0,0,1-.162-.188,14.3,14.3,0,0,0-4.743,1.32,9.855,9.855,0,0,0-5.658,11c.859,4.759,4.3,8.127,7.3,11.651a.1.1,0,0,1-.14.14c-3.848-3.466-7.648-8.1-7.877-13.509-.2-4.582,2.6-8.259,6.727-10.012a15.8,15.8,0,0,1,5.765-1.216c3.051-1.3,6.3-2.719,7.492-6.085.84-2.383.1-5.526-2.573-6.376a3.448,3.448,0,0,0-3.463.69,3.123,3.123,0,0,0-.875,2.241,1.882,1.882,0,0,0,1.748,2.124c-1.657-1.543,2.436-3.238,2.171-.645-.162,1.591-2.094,1.691-3.135.933a3.371,3.371,0,0,1-.84-4.027c1.829-4.174,7.328-1.366,7.856,2.179C653.54,356.665,649.68,359.629,645.8,361.148Z" fill="#dfba7f"/>
      <path id="Path_214" data-name="Path 214" d="M651.979,328.656c.179.661-2.479,17.271-2.479,17.271l2.663.984Z" fill="#dfba7f"/>
    </g>
    <g id="Group_135" data-name="Group 135">
      <path id="Path_215" data-name="Path 215" d="M651.286,395.469a.453.453,0,0,0-.539-.219.208.208,0,0,0-.091.345l.251.233.043-.334c-.2.089-.464.154-.486.4a.127.127,0,0,0,.063.109c.2.137.456-.055.638-.144a.214.214,0,0,0,.043-.335l-.261-.224c-.03.115-.06.23-.091.345a.381.381,0,0,1,.215.036.158.158,0,0,0,.215-.215Z" fill="#dfba7f"/>
    </g>
    <g id="Group_136" data-name="Group 136">
      <path id="Path_216" data-name="Path 216" d="M650.975,396.82c.059.058.118.116.176.175a.176.176,0,0,0,.275-.212,5.516,5.516,0,0,0-.481-.64c-.13-.168-.415.014-.351.2.055.167.117.359.3.41a.119.119,0,0,0,.131-.054.49.49,0,0,0-.029-.467l-.351.2a5.2,5.2,0,0,0,.5.555c.071-.092.142-.183.212-.275l-.2-.147c-.145-.108-.315.125-.19.247Z" fill="#dfba7f"/>
    </g>
    <g id="Group_137" data-name="Group 137">
      <path id="Path_217" data-name="Path 217" d="M650.153,397.9a8.265,8.265,0,0,0-1.081-.189v.388l.427.01v-.378c-.3,0-.6.021-.9.026l.16.159a.41.41,0,0,0-.058-.229.172.172,0,0,0-.233-.061c-.154.09-.041.2-.022.333a.161.161,0,0,0,.153.117c.3.008.6.028.9.033a.189.189,0,0,0,0-.378l-.427-.02c-.251-.012-.248.372,0,.388a8.045,8.045,0,0,0,1.053,0c.111-.007.145-.173.028-.2Z" fill="#dfba7f"/>
    </g>
    <g id="Group_138" data-name="Group 138">
      <path id="Path_218" data-name="Path 218" d="M645.288,391.029a3.239,3.239,0,0,0,.578.9,2.231,2.231,0,0,0,.708.725.111.111,0,0,0,.161-.124,2.217,2.217,0,0,0-.549-.848,3.249,3.249,0,0,0-.757-.764.1.1,0,0,0-.141.108Z" fill="#dfba7f"/>
    </g>
    <g id="Group_139" data-name="Group 139">
      <path id="Path_219" data-name="Path 219" d="M641.991,388.026a27.7,27.7,0,0,0,3.165,3.532,24.49,24.49,0,0,0,3.412,3.3c.093.065.214-.062.154-.154a24.486,24.486,0,0,0-3.194-3.515,27.7,27.7,0,0,0-3.429-3.268c-.064-.045-.15.044-.108.108Z" fill="#dfba7f"/>
    </g>
    <g id="Group_140" data-name="Group 140">
      <path id="Path_220" data-name="Path 220" d="M640.823,388.8a32.391,32.391,0,0,0,3.643,4.092,41.023,41.023,0,0,0,4.319,4.3c.091.071.258-.021.177-.136a39.194,39.194,0,0,0-3.894-4.308,34.272,34.272,0,0,0-4.138-4.052c-.063-.047-.15.045-.107.108Z" fill="#dfba7f"/>
    </g>
    <g id="Group_141" data-name="Group 141">
      <path id="Path_221" data-name="Path 221" d="M641.952,387.784l-.033.013a.031.031,0,0,0,0,.059l.033.014c.071.028.071-.115,0-.086Z" fill="#dfba7f"/>
    </g>
    <g id="Group_142" data-name="Group 142">
      <path id="Path_222" data-name="Path 222" d="M641.87,387.866a10.69,10.69,0,0,0,2.015,2.32,13.446,13.446,0,0,0,2.2,2.144c.067.044.145-.041.107-.107a13.51,13.51,0,0,0-2.041-2.3,10.66,10.66,0,0,0-2.217-2.118.049.049,0,0,0-.066.066Z" fill="#dfba7f"/>
    </g>
  </g>
</svg>
