<svg xmlns="http://www.w3.org/2000/svg" width="130.886" height="32.976" viewBox="0 0 130.886 32.976">
  <g id="Group_209" data-name="Group 209" transform="translate(-440.554 -61.608)">
    <g id="Group_207" data-name="Group 207">
      <g id="Group_206" data-name="Group 206">
        <g id="Group_204" data-name="Group 204">
          <path id="Path_303" data-name="Path 303" d="M479.612,73.988a1.812,1.812,0,0,1,.85.611,1.391,1.391,0,0,1,.214,1.034,2.144,2.144,0,0,1-1.3,1.594,2.372,2.372,0,0,1-.519.148,2.689,2.689,0,0,1-.538,0,2.747,2.747,0,0,1-.524-.082l-.259-.065c-.084-.03-.166-.067-.249-.1a2.768,2.768,0,0,1-.89-.6,2.979,2.979,0,0,1-.592-.9,3.474,3.474,0,0,1,.559-3.562,2.576,2.576,0,0,1,.363-.4,5.141,5.141,0,0,1,1.815-1.117,7.681,7.681,0,0,1,2.079-.408,8.849,8.849,0,0,1,2.106.135,8.476,8.476,0,0,1,2.028.616,6.576,6.576,0,0,1,1.786,1.189,9.028,9.028,0,0,1,1.357,1.637c.776,1.172,1.35,2.425,2.042,3.566a8.585,8.585,0,0,0,1.162,1.567,5.66,5.66,0,0,0,5.2,1.65,6.379,6.379,0,0,0,3.309-1.711,6.079,6.079,0,0,0,1.737-3.253,5.039,5.039,0,0,0-.528-3.562,4.136,4.136,0,0,0-2.864-2.052l-.459-.064a2.882,2.882,0,0,0-.446-.01,4.938,4.938,0,0,0-.921.14,5.706,5.706,0,0,0-1.734.75,2.45,2.45,0,0,0-1.081,1.392,2.195,2.195,0,0,0-.082.886,2.1,2.1,0,0,0,.315.833,2.149,2.149,0,0,0,1.558.915,4.137,4.137,0,0,0,1.943-.328.056.056,0,0,1,.073.029.057.057,0,0,1-.025.071,4.036,4.036,0,0,1-2.014.55,2.445,2.445,0,0,1-2.422-1.973,2.8,2.8,0,0,1,.027-1.143,2.9,2.9,0,0,1,.458-1.054,3.775,3.775,0,0,1,.791-.809,6.069,6.069,0,0,1,1.955-.983,5.94,5.94,0,0,1,1.093-.215,3.822,3.822,0,0,1,.577-.013l.558.052a5.143,5.143,0,0,1,2.1.813,5.293,5.293,0,0,1,1.559,1.643,6.18,6.18,0,0,1,.706,4.353,7.12,7.12,0,0,1-2.112,3.832,7.431,7.431,0,0,1-3.91,1.9,6.644,6.644,0,0,1-5.988-2.051,9.424,9.424,0,0,1-1.24-1.741c-.7-1.21-1.242-2.461-1.955-3.583a6.724,6.724,0,0,0-2.8-2.639,7.863,7.863,0,0,0-1.869-.608,8.244,8.244,0,0,0-1.969-.167,7.169,7.169,0,0,0-1.938.324,4.678,4.678,0,0,0-1.673.967,2.262,2.262,0,0,0-.337.348,3.135,3.135,0,0,0-.292.384,3.077,3.077,0,0,0-.386.875,3.139,3.139,0,0,0,.1,1.9,2.637,2.637,0,0,0,.5.814,2.465,2.465,0,0,0,.781.558c.075.032.147.069.223.1l.236.066a2.522,2.522,0,0,0,.483.088,2.382,2.382,0,0,0,.484.013,2.143,2.143,0,0,0,.466-.12,1.951,1.951,0,0,0,1.217-1.414,1.238,1.238,0,0,0-.165-.928,1.7,1.7,0,0,0-.772-.584l-.005,0a.056.056,0,0,1,.043-.1Z" fill="#dfba7f"/>
          <path id="Path_304" data-name="Path 304" d="M483.769,79.391a1.687,1.687,0,0,1,.739,1.947,2.1,2.1,0,0,1-1.67,1.379,2.168,2.168,0,0,1-1.133-.138,2.571,2.571,0,0,1-.924-.666,2.737,2.737,0,0,1-.655-2.146,3.293,3.293,0,0,1,3.315-2.691,3.488,3.488,0,0,1,1.151.212,4,4,0,0,1,1.015.574A4.222,4.222,0,0,1,486,84.119a7.026,7.026,0,0,1-4.08,1.827,10.332,10.332,0,0,1-4.4-.359,10.517,10.517,0,0,1-3.853-2.21,11.6,11.6,0,0,1-2.692-3.536A11.181,11.181,0,0,1,469.8,75.5a8.739,8.739,0,0,1,.906-4.5,9.7,9.7,0,0,1,2.99-3.459,10.944,10.944,0,0,1,4.151-1.775,9.73,9.73,0,0,1,4.464.237,10.4,10.4,0,0,1,6.438,5.455.093.093,0,0,1-.159.1A10.894,10.894,0,0,0,482,67.271a8.792,8.792,0,0,0-3.806.1,9.4,9.4,0,0,0-3.386,1.663,8.481,8.481,0,0,0-2.369,2.836,7.339,7.339,0,0,0-.794,3.567,9.784,9.784,0,0,0,3.033,6.846,8.8,8.8,0,0,0,7.1,2.461,5.924,5.924,0,0,0,3.463-1.382,3.254,3.254,0,0,0,.827-3.328,3.066,3.066,0,0,0-2.65-2.2,2.67,2.67,0,0,0-1.732.514,2.421,2.421,0,0,0-.992,1.508,2.205,2.205,0,0,0,.455,1.746,1.866,1.866,0,0,0,1.637.727,1.758,1.758,0,0,0,1.445-1.08,1.448,1.448,0,0,0-.561-1.7.091.091,0,0,1-.028-.128.093.093,0,0,1,.124-.031Z" fill="#dfba7f"/>
        </g>
        <g id="Group_205" data-name="Group 205">
          <path id="Path_305" data-name="Path 305" d="M506.193,72.738a5.531,5.531,0,0,0-.242-.842l.1,0,0,.012v0a.051.051,0,0,1-.062.036.049.049,0,0,1-.037-.04l0-.02.1.019-.232.771v0a34.516,34.516,0,0,1-1.416,3.627,22.405,22.405,0,0,1-1.929,3.4,11.834,11.834,0,0,1-2.725,2.846,7.44,7.44,0,0,1-3.719,1.439l.246-.451a2.318,2.318,0,0,0,1.152.849,3.738,3.738,0,0,0,1.508.228,6.953,6.953,0,0,0,1.546-.327,7.586,7.586,0,0,0,1.459-.646,7.138,7.138,0,0,0,2.325-2.125,7.357,7.357,0,0,0,.77-1.386c.2-.5.351-1.019.528-1.525a.468.468,0,0,1,.878-.015l.006.015c.193.5.362,1.019.569,1.508a7.249,7.249,0,0,0,.8,1.355,7.029,7.029,0,0,0,2.337,2.029,7.478,7.478,0,0,0,1.436.6,6.761,6.761,0,0,0,1.5.286,3.486,3.486,0,0,0,1.408-.219,2.1,2.1,0,0,0,1.017-.741l.453.829a7.476,7.476,0,0,1-3.819-1.5,11.854,11.854,0,0,1-2.706-2.933,21.412,21.412,0,0,1-1.864-3.444c-.268-.592-.509-1.195-.737-1.8S506.385,73.362,506.193,72.738Zm.108-.029a24.672,24.672,0,0,0,1.521,3.543,20.44,20.44,0,0,0,2.109,3.195,11.853,11.853,0,0,0,2.75,2.519,7.141,7.141,0,0,0,3.359,1.165h.005a.557.557,0,0,1,.517.594.546.546,0,0,1-.07.235,2.528,2.528,0,0,1-.728.8,3.961,3.961,0,0,1-.86.473,4.656,4.656,0,0,1-1.878.318,7.748,7.748,0,0,1-1.786-.364,8.593,8.593,0,0,1-1.639-.719,8.064,8.064,0,0,1-2.621-2.406,8.244,8.244,0,0,1-.859-1.554c-.214-.544-.379-1.1-.568-1.646h.884c-.205.543-.384,1.091-.61,1.627a8.264,8.264,0,0,1-.89,1.519,7.956,7.956,0,0,1-2.634,2.3,8.386,8.386,0,0,1-1.616.673,7.6,7.6,0,0,1-1.733.321,4.408,4.408,0,0,1-1.776-.31,2.889,2.889,0,0,1-1.452-1.164.3.3,0,0,1,.108-.41.294.294,0,0,1,.13-.04h.008a7.181,7.181,0,0,0,3.48-1.24,12.029,12.029,0,0,0,2.74-2.635,19.593,19.593,0,0,0,2.048-3.27,24.308,24.308,0,0,0,1.476-3.582v0l.23-.788.1.019V71.88h-.1l.005-.019a.051.051,0,0,1,.062-.036.051.051,0,0,1,.034.03l0,0A5.672,5.672,0,0,1,506.3,72.709Z" fill="#dfba7f"/>
          <path id="Path_306" data-name="Path 306" d="M532.419,74.1a1.7,1.7,0,0,0-.774.586,1.234,1.234,0,0,0-.162.932,1.95,1.95,0,0,0,1.227,1.412,2.1,2.1,0,0,0,.468.117,3.214,3.214,0,0,0,.971-.107l.236-.066.223-.1a2.473,2.473,0,0,0,1.278-1.387,3.145,3.145,0,0,0,.077-1.907,3.109,3.109,0,0,0-.4-.874,3.918,3.918,0,0,0-.639-.729,4.755,4.755,0,0,0-1.688-.955,7.03,7.03,0,0,0-1.947-.311,8.084,8.084,0,0,0-1.974.179,8.209,8.209,0,0,0-1.871.622,6.412,6.412,0,0,0-1.585,1.123,9.205,9.205,0,0,0-1.251,1.531c-.744,1.109-1.34,2.339-2.039,3.54a15.547,15.547,0,0,1-1.164,1.759l-.338.417-.371.394a5.606,5.606,0,0,1-.849.718,5.11,5.11,0,0,1-2.086.819,5.908,5.908,0,0,1-2.223-.1,7.509,7.509,0,0,1-2.044-.8,8.651,8.651,0,0,1-1.757-1.3,8.321,8.321,0,0,1-1.38-1.708,6.3,6.3,0,0,1-.833-2.068,6.094,6.094,0,0,1,.648-4.378,5.328,5.328,0,0,1,1.546-1.663,5.062,5.062,0,0,1,2.1-.835,5.238,5.238,0,0,1,1.138-.051,5.655,5.655,0,0,1,1.1.209,6.074,6.074,0,0,1,1.967.974,3.886,3.886,0,0,1,.8.806,2.869,2.869,0,0,1,.469,1.053l.058.282.017.289a2.92,2.92,0,0,1-.039.575,2.446,2.446,0,0,1-2.419,1.992,4.044,4.044,0,0,1-2.021-.55.056.056,0,0,1-.022-.076.058.058,0,0,1,.071-.025,4.12,4.12,0,0,0,1.948.328,2.142,2.142,0,0,0,1.559-.924,2.094,2.094,0,0,0,.311-.837,2.323,2.323,0,0,0,0-.449l-.026-.223-.061-.218a2.48,2.48,0,0,0-1.1-1.389,5.767,5.767,0,0,0-1.744-.743,4.725,4.725,0,0,0-.924-.134,4.3,4.3,0,0,0-.907.083,4.134,4.134,0,0,0-2.852,2.087,4.952,4.952,0,0,0-.481,3.57,6.4,6.4,0,0,0,1.849,3.228A7.558,7.558,0,0,0,514.025,80a6.517,6.517,0,0,0,1.752.737,4.454,4.454,0,0,0,3.58-.493,4.688,4.688,0,0,0,.728-.593l.341-.346.316-.376a14.649,14.649,0,0,0,1.135-1.642c.7-1.153,1.33-2.385,2.137-3.537a9.877,9.877,0,0,1,1.379-1.617,7.09,7.09,0,0,1,1.78-1.206A8.838,8.838,0,0,1,529.2,70.3a8.694,8.694,0,0,1,2.112-.147,7.573,7.573,0,0,1,2.087.393,5.24,5.24,0,0,1,1.831,1.1,4.395,4.395,0,0,1,.688.831,3.509,3.509,0,0,1,.276,3.131,2.781,2.781,0,0,1-1.475,1.518l-.248.1-.26.066a3.388,3.388,0,0,1-1.065.086,2.349,2.349,0,0,1-.522-.144,2.148,2.148,0,0,1-1.311-1.593,1.389,1.389,0,0,1,.212-1.037,1.812,1.812,0,0,1,.852-.614.054.054,0,0,1,.072.031.056.056,0,0,1-.03.072Z" fill="#dfba7f"/>
          <path id="Path_307" data-name="Path 307" d="M528.322,79.558a1.447,1.447,0,0,0-.562,1.7,1.756,1.756,0,0,0,1.445,1.079,1.864,1.864,0,0,0,1.637-.727,2.2,2.2,0,0,0,.456-1.745,2.429,2.429,0,0,0-.992-1.508,2.68,2.68,0,0,0-1.733-.515,3.069,3.069,0,0,0-2.649,2.2,3.253,3.253,0,0,0,.826,3.328,5.937,5.937,0,0,0,3.463,1.382,8.808,8.808,0,0,0,7.1-2.461,9.787,9.787,0,0,0,3.034-6.846,7.358,7.358,0,0,0-.794-3.567,8.481,8.481,0,0,0-2.369-2.836,9.382,9.382,0,0,0-3.387-1.663,8.792,8.792,0,0,0-3.806-.1,10.9,10.9,0,0,0-6.588,4.277.094.094,0,0,1-.16-.1,10.4,10.4,0,0,1,6.439-5.455,9.729,9.729,0,0,1,4.464-.237,10.938,10.938,0,0,1,4.15,1.774A9.713,9.713,0,0,1,541.287,71a8.728,8.728,0,0,1,.905,4.5,11.159,11.159,0,0,1-1.174,4.342,11.6,11.6,0,0,1-2.692,3.537,10.547,10.547,0,0,1-3.853,2.21,10.353,10.353,0,0,1-4.4.359,7.024,7.024,0,0,1-4.079-1.827,4.258,4.258,0,0,1-.953-4.385,4.208,4.208,0,0,1,1.346-1.872A3.98,3.98,0,0,1,527.4,77.3a3.5,3.5,0,0,1,1.151-.212,3.292,3.292,0,0,1,3.315,2.69,2.735,2.735,0,0,1-.655,2.147,2.547,2.547,0,0,1-.924.665,2.146,2.146,0,0,1-1.133.138,2.1,2.1,0,0,1-1.67-1.378,1.688,1.688,0,0,1,.739-1.947h0a.093.093,0,0,1,.1.159Z" fill="#dfba7f"/>
        </g>
        <path id="Path_308" data-name="Path 308" d="M507.646,90.656a5.891,5.891,0,0,1-.206,2,4.811,4.811,0,0,1-.395.947,5.983,5.983,0,0,1-.584.866.313.313,0,0,1-.442.046l-.023-.02-.025-.026a6.279,6.279,0,0,1-1.239-1.74,4.891,4.891,0,0,1-.375-1.049,3.146,3.146,0,0,1-.071-1.176,1.8,1.8,0,0,1,.674-1.19,1.605,1.605,0,0,1,1.3-.309,1.674,1.674,0,0,1,1.026.644A2.018,2.018,0,0,1,507.646,90.656Zm-.11.015a1.085,1.085,0,0,0-.509-.748,1.038,1.038,0,0,0-.788-.086,1.194,1.194,0,0,0-.554.331,1.021,1.021,0,0,0-.261.531,3.042,3.042,0,0,0-.055.816,3.478,3.478,0,0,0,.186.868A6.066,6.066,0,0,0,506.461,94h-.49a5.775,5.775,0,0,0,.608-.7,9.133,9.133,0,0,0,.535-.786,3.462,3.462,0,0,0,.38-.883A2.455,2.455,0,0,0,507.536,90.671Z" fill="#dfba7f"/>
        <path id="Path_309" data-name="Path 309" d="M506.256,82.424c.008.263.031.5.028.745-.022.261-.022.526-.069.786A6.553,6.553,0,0,1,505.8,85.5a5.47,5.47,0,0,1-.85,1.384,4.387,4.387,0,0,1-1.3,1.058l-.216-.652,1.327-.385a5.829,5.829,0,0,1,1.461-.242,6.078,6.078,0,0,1,1.489.132c.452.089.9.175,1.355.273l-.36,1.085a3.655,3.655,0,0,1-.792-.478,4.274,4.274,0,0,1-.63-.6,5.224,5.224,0,0,1-.879-1.462,5.615,5.615,0,0,1-.352-1.619,6.456,6.456,0,0,1,0-.811c.007-.134.033-.267.049-.4.009-.067.02-.132.032-.2l.016-.1.009-.049,0-.025,0-.012v-.009h0C506.11,82.329,506.218,82.466,506.256,82.424Zm-.08-.078c.039-.043.146.1.1.04V82.4l0,.012.006.024.012.048.024.1.044.19.083.376c.08.245.128.492.215.727a7.732,7.732,0,0,0,.59,1.331,5.7,5.7,0,0,0,.855,1.1,5.279,5.279,0,0,0,.511.449c.09.065.181.133.272.191a2.767,2.767,0,0,0,.251.15l.067.035a.57.57,0,0,1-.426,1.05c-.443-.125-.883-.262-1.324-.4a4.823,4.823,0,0,0-1.242-.224,4.975,4.975,0,0,0-1.269.114l-1.352.285-.011,0a.344.344,0,0,1-.205-.654,3.847,3.847,0,0,0,1.151-.811,5.211,5.211,0,0,0,.884-1.179,6.243,6.243,0,0,0,.527-1.409c.068-.245.093-.5.146-.751Z" fill="#dfba7f"/>
        <path id="Path_310" data-name="Path 310" d="M500.306,87.9a.676.676,0,1,1,.676.676A.676.676,0,0,1,500.306,87.9Z" fill="#dfba7f"/>
        <path id="Path_311" data-name="Path 311" d="M511.631,87.62a.676.676,0,1,1,.676.676A.676.676,0,0,1,511.631,87.62Z" fill="#dfba7f"/>
      </g>
      <path id="Path_312" data-name="Path 312" d="M507.264,62.244a2.575,2.575,0,0,0-2.246-.1,3.117,3.117,0,0,0-1.516,1.427,2.911,2.911,0,0,0-.263,1.97A2.606,2.606,0,0,0,504.4,67.2a2.731,2.731,0,0,0,2.061.339,2.805,2.805,0,0,0,1.741-1.252,3.025,3.025,0,0,0,.419-2.189A2.714,2.714,0,0,0,507.264,62.244Zm.049-.085a3.544,3.544,0,0,1,1.51,1.886,3.146,3.146,0,0,1-.194,2.487,3.366,3.366,0,0,1-2,1.62,3.433,3.433,0,0,1-2.615-.275,3.565,3.565,0,0,1-1.708-2.083,3.325,3.325,0,0,1,.351-2.707,3.124,3.124,0,0,1,2.225-1.444A3.69,3.69,0,0,1,507.313,62.159Z" fill="#dfba7f"/>
    </g>
    <g id="Group_208" data-name="Group 208">
      <path id="Path_313" data-name="Path 313" d="M571.384,74.637l-24.363-.167v.446l24.363-.167a.056.056,0,0,0,.056-.056A.057.057,0,0,0,571.384,74.637Z" fill="#dfba7f"/>
      <path id="Path_314" data-name="Path 314" d="M440.608,74.637a.057.057,0,0,0-.054.054.056.056,0,0,0,.054.058c8.239.242,16.479.348,24.718.429v-.97C457.087,74.289,448.847,74.395,440.608,74.637Z" fill="#dfba7f"/>
    </g>
  </g>
</svg>
