<svg xmlns="http://www.w3.org/2000/svg" width="187.184" height="20.61" viewBox="0 0 187.184 20.61">
  <g id="Group_216" data-name="Group 216" transform="translate(-521.526 -124.804)">
    <path id="Path_317" data-name="Path 317" d="M703.933,135.109l-22.287.243-22.287.14-44.574.117-44.574-.115-22.287-.14-22.287-.245,22.287-.245,22.287-.14,44.574-.115,44.574.117,22.287.14Z" fill="#dfba7f"/>
    <g id="Group_212" data-name="Group 212">
      <g id="Group_210" data-name="Group 210">
        <path id="Path_318" data-name="Path 318" d="M704.412,132.13a10.955,10.955,0,0,0-4.613.974,5.67,5.67,0,0,0-3.236,3.024c-.551,1.4-.387,3.006-.834,4.684a6.141,6.141,0,0,1-3.27,3.845,7.066,7.066,0,0,1-2.461.733,3.4,3.4,0,0,1-2.654-.662,1.361,1.361,0,0,1-.42-.791,1.293,1.293,0,0,1,.226-.878,3.187,3.187,0,0,1,1.047-.917,10.213,10.213,0,0,1,2.3-.959c1.563-.471,3.142-.764,4.678-1.167a17.1,17.1,0,0,0,2.27-.706,4.876,4.876,0,0,0,1.971-1.285,4.531,4.531,0,0,1-1.86,1.525,17.408,17.408,0,0,1-2.241.936c-1.535.505-3.1.884-4.574,1.426a11.694,11.694,0,0,0-2.086.975,2.4,2.4,0,0,0-.738.662c-.127.243-.1.291.081.5a2.6,2.6,0,0,0,1.9.374,6.116,6.116,0,0,0,2.112-.654,5.2,5.2,0,0,0,2.814-3.22c.453-1.4.3-3.127,1.034-4.714a5.146,5.146,0,0,1,1.578-2,8.284,8.284,0,0,1,2.179-1.181A10.323,10.323,0,0,1,704.412,132.13Z" fill="#dfba7f"/>
        <path id="Path_319" data-name="Path 319" d="M704.412,138.088a10.323,10.323,0,0,1-4.8-.523,8.285,8.285,0,0,1-2.179-1.181,5.146,5.146,0,0,1-1.578-2c-.734-1.587-.581-3.314-1.034-4.714a5.206,5.206,0,0,0-2.814-3.221,6.136,6.136,0,0,0-2.112-.653,2.6,2.6,0,0,0-1.9.373c-.182.205-.208.253-.081.5a2.391,2.391,0,0,0,.738.661,11.623,11.623,0,0,0,2.086.975c1.478.542,3.039.922,4.574,1.427a17.34,17.34,0,0,1,2.242.936,4.535,4.535,0,0,1,1.859,1.525,4.876,4.876,0,0,0-1.971-1.285,17.1,17.1,0,0,0-2.27-.706c-1.536-.4-3.115-.7-4.678-1.167a10.213,10.213,0,0,1-2.3-.959,3.2,3.2,0,0,1-1.047-.917,1.293,1.293,0,0,1-.226-.878,1.362,1.362,0,0,1,.42-.791,3.4,3.4,0,0,1,2.654-.662,7.066,7.066,0,0,1,2.461.733,6.141,6.141,0,0,1,3.27,3.845c.447,1.678.283,3.288.834,4.684a5.67,5.67,0,0,0,3.236,3.024A10.955,10.955,0,0,0,704.412,138.088Z" fill="#dfba7f"/>
        <path id="Path_320" data-name="Path 320" d="M702.008,133.713c-1.533.771-1.533,2.021,0,2.792a6.953,6.953,0,0,0,5.552,0c1.534-.771,1.534-2.021,0-2.792A6.953,6.953,0,0,0,702.008,133.713Z" fill="#dfba7f"/>
      </g>
      <g id="Group_211" data-name="Group 211">
        <path id="Path_321" data-name="Path 321" d="M696.7,128.172a23.926,23.926,0,0,1-10.89,6.691,5.713,5.713,0,0,1-4.432-.166,2.963,2.963,0,0,1-1.451-1.867,2.4,2.4,0,0,1,.6-2.311,2.879,2.879,0,0,1,2.244-.694,5.6,5.6,0,0,1,2.122.726,35.478,35.478,0,0,0,7.84,3.28,27.67,27.67,0,0,1-4.154-1.065,33.952,33.952,0,0,1-3.944-1.7,5.751,5.751,0,0,0-1.915-.6,2.226,2.226,0,0,0-1.717.536,1.7,1.7,0,0,0-.38,1.649,2.238,2.238,0,0,0,1.127,1.39,5.026,5.026,0,0,0,3.88.159,29.135,29.135,0,0,0,3.965-1.43A28.643,28.643,0,0,0,696.7,128.172Z" fill="#dfba7f"/>
        <path id="Path_322" data-name="Path 322" d="M696.7,142.046a28.643,28.643,0,0,0-7.106-4.6,29.135,29.135,0,0,0-3.965-1.43,5.026,5.026,0,0,0-3.88.159,2.238,2.238,0,0,0-1.127,1.39,1.7,1.7,0,0,0,.38,1.649,2.226,2.226,0,0,0,1.717.536,5.753,5.753,0,0,0,1.915-.6,34.12,34.12,0,0,1,3.944-1.7,27.8,27.8,0,0,1,4.154-1.066,35.53,35.53,0,0,0-7.84,3.281,5.6,5.6,0,0,1-2.122.726,2.883,2.883,0,0,1-2.244-.694,2.4,2.4,0,0,1-.6-2.311,2.963,2.963,0,0,1,1.451-1.867,5.713,5.713,0,0,1,4.432-.166,23.926,23.926,0,0,1,10.89,6.691Z" fill="#dfba7f"/>
      </g>
    </g>
    <g id="Group_215" data-name="Group 215">
      <g id="Group_213" data-name="Group 213">
        <path id="Path_323" data-name="Path 323" d="M525.824,132.13a10.322,10.322,0,0,1,4.8.523,8.268,8.268,0,0,1,2.179,1.181,5.158,5.158,0,0,1,1.579,2c.733,1.587.58,3.314,1.034,4.714a5.2,5.2,0,0,0,2.814,3.22,6.11,6.11,0,0,0,2.112.654,2.6,2.6,0,0,0,1.9-.374c.182-.2.209-.252.081-.5a2.394,2.394,0,0,0-.738-.662,11.63,11.63,0,0,0-2.086-.975c-1.478-.542-3.039-.921-4.574-1.426a17.527,17.527,0,0,1-2.241-.936,4.529,4.529,0,0,1-1.859-1.525,4.872,4.872,0,0,0,1.97,1.285,17.1,17.1,0,0,0,2.27.706c1.537.4,3.115.7,4.678,1.167a10.2,10.2,0,0,1,2.3.959,3.207,3.207,0,0,1,1.047.917,1.293,1.293,0,0,1,.225.878,1.361,1.361,0,0,1-.42.791,3.4,3.4,0,0,1-2.654.662,7.066,7.066,0,0,1-2.461-.733,6.143,6.143,0,0,1-3.27-3.845c-.446-1.678-.283-3.288-.834-4.684a5.667,5.667,0,0,0-3.236-3.024A10.955,10.955,0,0,0,525.824,132.13Z" fill="#dfba7f"/>
        <path id="Path_324" data-name="Path 324" d="M525.824,138.088a10.955,10.955,0,0,0,4.613-.974,5.667,5.667,0,0,0,3.236-3.024c.551-1.4.388-3.006.834-4.684a6.143,6.143,0,0,1,3.27-3.845,7.066,7.066,0,0,1,2.461-.733,3.4,3.4,0,0,1,2.654.662,1.362,1.362,0,0,1,.42.791,1.293,1.293,0,0,1-.225.878,3.207,3.207,0,0,1-1.047.917,10.2,10.2,0,0,1-2.3.959c-1.563.471-3.141.764-4.678,1.167a17.1,17.1,0,0,0-2.27.706,4.872,4.872,0,0,0-1.97,1.285,4.529,4.529,0,0,1,1.859-1.525,17.388,17.388,0,0,1,2.241-.936c1.535-.5,3.1-.885,4.574-1.427a11.594,11.594,0,0,0,2.086-.975,2.379,2.379,0,0,0,.738-.661c.128-.243.1-.291-.081-.5a2.6,2.6,0,0,0-1.9-.373,6.129,6.129,0,0,0-2.112.653,5.2,5.2,0,0,0-2.814,3.221c-.454,1.4-.3,3.127-1.034,4.714a5.158,5.158,0,0,1-1.579,2,8.269,8.269,0,0,1-2.179,1.181A10.322,10.322,0,0,1,525.824,138.088Z" fill="#dfba7f"/>
        <path id="Path_325" data-name="Path 325" d="M528.229,133.713c1.533.771,1.533,2.021,0,2.792a6.955,6.955,0,0,1-5.553,0c-1.533-.771-1.533-2.021,0-2.792A6.955,6.955,0,0,1,528.229,133.713Z" fill="#dfba7f"/>
      </g>
      <g id="Group_214" data-name="Group 214">
        <path id="Path_326" data-name="Path 326" d="M533.539,128.172a28.659,28.659,0,0,0,7.106,4.6,29.134,29.134,0,0,0,3.965,1.43,5.025,5.025,0,0,0,3.88-.159,2.235,2.235,0,0,0,1.127-1.39,1.7,1.7,0,0,0-.379-1.649,2.23,2.23,0,0,0-1.718-.536,5.765,5.765,0,0,0-1.915.6,33.8,33.8,0,0,1-3.944,1.7,27.658,27.658,0,0,1-4.153,1.065,35.45,35.45,0,0,0,7.839-3.28,5.6,5.6,0,0,1,2.122-.726,2.881,2.881,0,0,1,2.245.694,2.4,2.4,0,0,1,.6,2.311,2.966,2.966,0,0,1-1.451,1.867,5.715,5.715,0,0,1-4.433.166,23.926,23.926,0,0,1-10.89-6.691Z" fill="#dfba7f"/>
        <path id="Path_327" data-name="Path 327" d="M533.539,142.046a23.926,23.926,0,0,1,10.89-6.691,5.715,5.715,0,0,1,4.433.166,2.966,2.966,0,0,1,1.451,1.867,2.4,2.4,0,0,1-.6,2.311,2.885,2.885,0,0,1-2.245.694,5.6,5.6,0,0,1-2.122-.726,35.5,35.5,0,0,0-7.839-3.281,27.783,27.783,0,0,1,4.153,1.066,33.97,33.97,0,0,1,3.944,1.7,5.768,5.768,0,0,0,1.915.6,2.23,2.23,0,0,0,1.718-.536,1.7,1.7,0,0,0,.379-1.649,2.235,2.235,0,0,0-1.127-1.39,5.025,5.025,0,0,0-3.88-.159,29.134,29.134,0,0,0-3.965,1.43A28.659,28.659,0,0,0,533.539,142.046Z" fill="#dfba7f"/>
      </g>
    </g>
  </g>
</svg>
