<svg xmlns="http://www.w3.org/2000/svg" width="100.259" height="100.259" viewBox="0 0 100.259 100.259">
  <g id="Group_265" data-name="Group 265" transform="translate(429.633 -526.617) rotate(90)">
    <g id="Group_217" data-name="Group 217">
      <path id="Path_328" data-name="Path 328" d="M535.269,423.144h-.755V337.272h85.738v.755H535.269Z" fill="#dfba7f"/>
    </g>
    <g id="Group_218" data-name="Group 218">
      <path id="Path_329" data-name="Path 329" d="M546.987,362.993a9.561,9.561,0,0,1-4.388-1.086,13.311,13.311,0,0,1-5.557-5.99,27.527,27.527,0,0,1-2.271-7.828,43.638,43.638,0,0,1-.548-10.1l.753.054a42.749,42.749,0,0,0,.541,9.928,26,26,0,0,0,2.2,7.613,12.55,12.55,0,0,0,5.229,5.654,8.151,8.151,0,0,0,7.411.214,6.056,6.056,0,0,0,3.219-6.289,4.367,4.367,0,0,0-2.282-3.068,3.245,3.245,0,0,0-3.578.518,2.555,2.555,0,0,0-.19,3.384,2.019,2.019,0,0,0,2.51.381,1.621,1.621,0,0,0,.661-1.179,1.407,1.407,0,0,0-.349-1.13l.54-.526a2.157,2.157,0,0,1,.56,1.732,2.386,2.386,0,0,1-.987,1.726,2.763,2.763,0,0,1-3.494-.5,3.333,3.333,0,0,1,.216-4.422,3.964,3.964,0,0,1,4.432-.667,5.119,5.119,0,0,1,2.7,3.6,6.828,6.828,0,0,1-3.608,7.11A8.028,8.028,0,0,1,546.987,362.993Z" fill="#dfba7f"/>
    </g>
    <g id="Group_219" data-name="Group 219">
      <path id="Path_330" data-name="Path 330" d="M552.707,357.843a5.56,5.56,0,0,1-1.114-.112,5.126,5.126,0,0,1-3.6-2.7,3.967,3.967,0,0,1,.665-4.432,3.336,3.336,0,0,1,4.424-.216,2.765,2.765,0,0,1,.5,3.494,2.387,2.387,0,0,1-1.73.987,2.154,2.154,0,0,1-1.729-.559l.526-.541a1.4,1.4,0,0,0,1.128.349,1.627,1.627,0,0,0,1.182-.66,2.018,2.018,0,0,0-.381-2.511,2.559,2.559,0,0,0-3.385.19,3.246,3.246,0,0,0-.517,3.578,4.362,4.362,0,0,0,3.067,2.282,6.056,6.056,0,0,0,6.288-3.22,8.143,8.143,0,0,0-.212-7.409,12.564,12.564,0,0,0-5.654-5.231,26.8,26.8,0,0,0-7.615-2.2,42.65,42.65,0,0,0-9.928-.541l-.054-.753a43.578,43.578,0,0,1,10.1.548,27.584,27.584,0,0,1,7.83,2.27,13.332,13.332,0,0,1,5.989,5.558,8.912,8.912,0,0,1,.21,8.109A6.987,6.987,0,0,1,552.707,357.843Z" fill="#dfba7f"/>
    </g>
    <g id="Group_220" data-name="Group 220">
      <path id="Path_331" data-name="Path 331" d="M545.566,375.34a9.351,9.351,0,0,1-2.822-.439,12.791,12.791,0,0,1-6.776-5.619,27.049,27.049,0,0,1-3.1-8.245c-1.888-8.269-1.581-15.436.913-21.3a9.373,9.373,0,0,1,1.088-1.994l.6.455a8.649,8.649,0,0,0-1,1.834c-2.431,5.719-2.723,12.731-.871,20.841a26.312,26.312,0,0,0,3,8.014,12.021,12.021,0,0,0,6.363,5.3,7.872,7.872,0,0,0,7.752-1.576,5.816,5.816,0,0,0,.736-7.428,2.608,2.608,0,0,0-1.218-.934,2.464,2.464,0,0,0-.946-.078,3.2,3.2,0,0,0-2.141.975,2.064,2.064,0,0,0-.419,2.108,1.468,1.468,0,0,0,1.742.841,1.146,1.146,0,0,0,.674-.766.943.943,0,0,0-.115-.851l.6-.458a1.7,1.7,0,0,1,.241,1.523,1.9,1.9,0,0,1-1.144,1.263,2.224,2.224,0,0,1-2.689-1.251,2.8,2.8,0,0,1,.547-2.91,3.96,3.96,0,0,1,2.644-1.227,3.263,3.263,0,0,1,1.233.111,3.329,3.329,0,0,1,1.584,1.187,6.594,6.594,0,0,1-.8,8.433A8.1,8.1,0,0,1,545.566,375.34Z" fill="#dfba7f"/>
    </g>
    <g id="Group_221" data-name="Group 221">
      <path id="Path_332" data-name="Path 332" d="M565.524,356.018a5.818,5.818,0,0,1-3.606-1.173,3.341,3.341,0,0,1-1.187-1.586,3.221,3.221,0,0,1-.112-1.232,3.973,3.973,0,0,1,1.229-2.644,2.8,2.8,0,0,1,2.909-.546,2.227,2.227,0,0,1,1.251,2.689,1.9,1.9,0,0,1-1.263,1.143,1.681,1.681,0,0,1-1.523-.24l.458-.6a.937.937,0,0,0,.852.116,1.151,1.151,0,0,0,.766-.674,1.475,1.475,0,0,0-.84-1.743,2.081,2.081,0,0,0-2.11.419,3.215,3.215,0,0,0-.976,2.142,2.444,2.444,0,0,0,.079.945,2.6,2.6,0,0,0,.935,1.219,5.812,5.812,0,0,0,7.426-.737,7.874,7.874,0,0,0,1.577-7.751,12.019,12.019,0,0,0-5.3-6.364,26.337,26.337,0,0,0-8.014-3c-8.107-1.851-15.12-1.561-20.842.871a8.6,8.6,0,0,0-1.833,1l-.456-.6a9.309,9.309,0,0,1,1.994-1.088c5.869-2.494,13.037-2.8,21.3-.913a27.047,27.047,0,0,1,8.245,3.1,12.782,12.782,0,0,1,5.619,6.776,8.534,8.534,0,0,1-1.759,8.509A6.821,6.821,0,0,1,565.524,356.018Z" fill="#dfba7f"/>
    </g>
    <g id="Group_222" data-name="Group 222">
      <path id="Path_333" data-name="Path 333" d="M558.209,331.527a7.142,7.142,0,0,0-5.616,3.295A7.141,7.141,0,0,0,558.209,331.527Z" fill="#dfba7f"/>
    </g>
    <g id="Group_223" data-name="Group 223">
      <path id="Path_334" data-name="Path 334" d="M604.277,329.374a17.662,17.662,0,0,0-13.9,8.151C596.431,337.152,600.909,334.181,604.277,329.374Z" fill="#dfba7f"/>
    </g>
    <g id="Group_224" data-name="Group 224">
      <path id="Path_335" data-name="Path 335" d="M604.277,345.925a17.664,17.664,0,0,1-13.9-8.151C596.431,338.147,600.909,341.117,604.277,345.925Z" fill="#dfba7f"/>
    </g>
    <g id="Group_225" data-name="Group 225">
      <path id="Path_336" data-name="Path 336" d="M608.543,330.965a14.218,14.218,0,0,0-11.183,6.56A14.216,14.216,0,0,0,608.543,330.965Z" fill="#dfba7f"/>
    </g>
    <g id="Group_226" data-name="Group 226">
      <path id="Path_337" data-name="Path 337" d="M608.543,344.333a14.212,14.212,0,0,1-11.183-6.56A14.219,14.219,0,0,1,608.543,344.333Z" fill="#dfba7f"/>
    </g>
    <g id="Group_227" data-name="Group 227">
      <path id="Path_338" data-name="Path 338" d="M613.59,332.1a11.764,11.764,0,0,0-9.251,5.427A11.759,11.759,0,0,0,613.59,332.1Z" fill="#dfba7f"/>
    </g>
    <g id="Group_228" data-name="Group 228">
      <path id="Path_339" data-name="Path 339" d="M613.59,342.882a11.761,11.761,0,0,1-9.251-5.426A11.76,11.76,0,0,1,613.59,342.882Z" fill="#dfba7f"/>
    </g>
    <g id="Group_229" data-name="Group 229">
      <path id="Path_340" data-name="Path 340" d="M618.613,333.246a9.274,9.274,0,0,0-7.295,4.279A9.272,9.272,0,0,0,618.613,333.246Z" fill="#dfba7f"/>
    </g>
    <g id="Group_230" data-name="Group 230">
      <path id="Path_341" data-name="Path 341" d="M617.295,343.508a9.272,9.272,0,0,1-5.977-5.983A9.274,9.274,0,0,1,617.295,343.508Z" fill="#dfba7f"/>
    </g>
    <g id="Group_231" data-name="Group 231">
      <path id="Path_342" data-name="Path 342" d="M625.065,333.555a8.607,8.607,0,0,0-6.768,3.97A8.6,8.6,0,0,0,625.065,333.555Z" fill="#dfba7f"/>
    </g>
    <g id="Group_232" data-name="Group 232">
      <path id="Path_343" data-name="Path 343" d="M624.7,342.272a8.6,8.6,0,0,1-6.412-4.524A8.605,8.605,0,0,1,624.7,342.272Z" fill="#dfba7f"/>
    </g>
    <g id="Group_233" data-name="Group 233">
      <path id="Path_344" data-name="Path 344" d="M626.876,337.4a8.605,8.605,0,0,0-7.843.252A8.6,8.6,0,0,0,626.876,337.4Z" fill="#dfba7f"/>
    </g>
    <g id="Group_234" data-name="Group 234">
      <path id="Path_345" data-name="Path 345" d="M526.617,407.034a17.662,17.662,0,0,1,8.151-13.9C534.4,399.188,531.424,403.666,526.617,407.034Z" fill="#dfba7f"/>
    </g>
    <g id="Group_235" data-name="Group 235">
      <path id="Path_346" data-name="Path 346" d="M543.168,407.034a17.663,17.663,0,0,0-8.152-13.9C535.389,399.188,538.36,403.666,543.168,407.034Z" fill="#dfba7f"/>
    </g>
    <g id="Group_236" data-name="Group 236">
      <path id="Path_347" data-name="Path 347" d="M528.208,411.3a14.217,14.217,0,0,1,6.56-11.183A14.216,14.216,0,0,1,528.208,411.3Z" fill="#dfba7f"/>
    </g>
    <g id="Group_237" data-name="Group 237">
      <path id="Path_348" data-name="Path 348" d="M541.576,411.3a14.215,14.215,0,0,0-6.56-11.183A14.216,14.216,0,0,0,541.576,411.3Z" fill="#dfba7f"/>
    </g>
    <g id="Group_238" data-name="Group 238">
      <path id="Path_349" data-name="Path 349" d="M529.341,416.347a11.764,11.764,0,0,1,5.427-9.251A11.759,11.759,0,0,1,529.341,416.347Z" fill="#dfba7f"/>
    </g>
    <g id="Group_239" data-name="Group 239">
      <path id="Path_350" data-name="Path 350" d="M540.125,416.347A11.761,11.761,0,0,0,534.7,407.1,11.76,11.76,0,0,0,540.125,416.347Z" fill="#dfba7f"/>
    </g>
    <g id="Group_240" data-name="Group 240">
      <path id="Path_351" data-name="Path 351" d="M530.489,421.37a9.274,9.274,0,0,1,4.279-7.295A9.274,9.274,0,0,1,530.489,421.37Z" fill="#dfba7f"/>
    </g>
    <g id="Group_241" data-name="Group 241">
      <path id="Path_352" data-name="Path 352" d="M540.751,420.052a9.274,9.274,0,0,0-5.983-5.977A9.274,9.274,0,0,0,540.751,420.052Z" fill="#dfba7f"/>
    </g>
    <g id="Group_242" data-name="Group 242">
      <path id="Path_353" data-name="Path 353" d="M530.8,427.823a8.6,8.6,0,0,1,3.97-6.769A8.606,8.606,0,0,1,530.8,427.823Z" fill="#dfba7f"/>
    </g>
    <g id="Group_243" data-name="Group 243">
      <path id="Path_354" data-name="Path 354" d="M539.515,427.457a8.6,8.6,0,0,0-4.524-6.412A8.6,8.6,0,0,0,539.515,427.457Z" fill="#dfba7f"/>
    </g>
    <g id="Group_244" data-name="Group 244">
      <path id="Path_355" data-name="Path 355" d="M534.641,429.633a8.605,8.605,0,0,1,.252-7.843A8.6,8.6,0,0,1,534.641,429.633Z" fill="#dfba7f"/>
    </g>
    <g id="Group_245" data-name="Group 245">
      <path id="Path_356" data-name="Path 356" d="M555.247,341.217a7.142,7.142,0,0,1-2.814-5.871A7.138,7.138,0,0,1,555.247,341.217Z" fill="#dfba7f"/>
    </g>
    <g id="Group_246" data-name="Group 246">
      <path id="Path_357" data-name="Path 357" d="M561.833,332.536a6.967,6.967,0,0,0-5.642,2.917A6.962,6.962,0,0,0,561.833,332.536Z" fill="#dfba7f"/>
    </g>
    <g id="Group_247" data-name="Group 247">
      <path id="Path_358" data-name="Path 358" d="M558.615,341.324a6.963,6.963,0,0,1-2.424-5.871A6.966,6.966,0,0,1,558.615,341.324Z" fill="#dfba7f"/>
    </g>
    <g id="Group_248" data-name="Group 248">
      <path id="Path_359" data-name="Path 359" d="M564.135,334.256a5.49,5.49,0,0,0-4.6,1.969A5.493,5.493,0,0,0,564.135,334.256Z" fill="#dfba7f"/>
    </g>
    <g id="Group_249" data-name="Group 249">
      <path id="Path_360" data-name="Path 360" d="M561.081,341.338a5.49,5.49,0,0,1-1.728-4.7A5.492,5.492,0,0,1,561.081,341.338Z" fill="#dfba7f"/>
    </g>
    <g id="Group_250" data-name="Group 250">
      <path id="Path_361" data-name="Path 361" d="M565.965,335.847a4.292,4.292,0,0,0-3.66,1.381A4.288,4.288,0,0,0,565.965,335.847Z" fill="#dfba7f"/>
    </g>
    <g id="Group_251" data-name="Group 251">
      <path id="Path_362" data-name="Path 362" d="M563.027,341.108a4.29,4.29,0,0,1-.744-3.84A4.287,4.287,0,0,1,563.027,341.108Z" fill="#dfba7f"/>
    </g>
    <g id="Group_252" data-name="Group 252">
      <path id="Path_363" data-name="Path 363" d="M568.683,338.058a4.285,4.285,0,0,0-3.909.131A4.288,4.288,0,0,0,568.683,338.058Z" fill="#dfba7f"/>
    </g>
    <g id="Group_253" data-name="Group 253">
      <path id="Path_364" data-name="Path 364" d="M565.417,342.047a4.286,4.286,0,0,1-.643-3.858A4.288,4.288,0,0,1,565.417,342.047Z" fill="#dfba7f"/>
    </g>
    <g id="Group_254" data-name="Group 254">
      <path id="Path_365" data-name="Path 365" d="M528.736,361a7.137,7.137,0,0,1,3.294-5.616A7.14,7.14,0,0,1,528.736,361Z" fill="#dfba7f"/>
    </g>
    <g id="Group_255" data-name="Group 255">
      <path id="Path_366" data-name="Path 366" d="M538.425,358.039a7.141,7.141,0,0,0-5.871-2.814A7.138,7.138,0,0,0,538.425,358.039Z" fill="#dfba7f"/>
    </g>
    <g id="Group_256" data-name="Group 256">
      <path id="Path_367" data-name="Path 367" d="M529.745,364.625a6.961,6.961,0,0,1,2.917-5.642A6.966,6.966,0,0,1,529.745,364.625Z" fill="#dfba7f"/>
    </g>
    <g id="Group_257" data-name="Group 257">
      <path id="Path_368" data-name="Path 368" d="M538.532,361.407a6.961,6.961,0,0,0-5.87-2.424A6.964,6.964,0,0,0,538.532,361.407Z" fill="#dfba7f"/>
    </g>
    <g id="Group_258" data-name="Group 258">
      <path id="Path_369" data-name="Path 369" d="M531.464,366.927a5.489,5.489,0,0,1,1.969-4.6A5.492,5.492,0,0,1,531.464,366.927Z" fill="#dfba7f"/>
    </g>
    <g id="Group_259" data-name="Group 259">
      <path id="Path_370" data-name="Path 370" d="M538.546,363.873a5.49,5.49,0,0,0-4.7-1.728A5.493,5.493,0,0,0,538.546,363.873Z" fill="#dfba7f"/>
    </g>
    <g id="Group_260" data-name="Group 260">
      <path id="Path_371" data-name="Path 371" d="M533.055,368.757a4.29,4.29,0,0,1,1.382-3.66A4.291,4.291,0,0,1,533.055,368.757Z" fill="#dfba7f"/>
    </g>
    <g id="Group_261" data-name="Group 261">
      <path id="Path_372" data-name="Path 372" d="M538.316,365.818a4.289,4.289,0,0,0-3.84-.743A4.29,4.29,0,0,0,538.316,365.818Z" fill="#dfba7f"/>
    </g>
    <g id="Group_262" data-name="Group 262">
      <path id="Path_373" data-name="Path 373" d="M535.266,371.475a4.288,4.288,0,0,1,.131-3.909A4.288,4.288,0,0,1,535.266,371.475Z" fill="#dfba7f"/>
    </g>
    <g id="Group_263" data-name="Group 263">
      <path id="Path_374" data-name="Path 374" d="M539.255,368.209a4.286,4.286,0,0,0-3.858-.643A4.289,4.289,0,0,0,539.255,368.209Z" fill="#dfba7f"/>
    </g>
    <g id="Group_264" data-name="Group 264">
      <path id="Path_375" data-name="Path 375" d="M541.174,354.467a1.29,1.29,0,0,1-1.23-.732,1.694,1.694,0,0,1,.662-1.867,6.067,6.067,0,0,1,3.291-1.492q.54-.984.99-2.012c.013-.028.024-.058.037-.086-.645.124-1.294.225-1.928.324-.744.116-1.5.234-2.248.39-.01.02-.019.04-.028.06-.3.647-.6,1.295-.922,1.93-.667,1.332-1.6,1.946-2.479,1.647a1.384,1.384,0,0,1-.846-.856,1.9,1.9,0,0,1,.125-1.582,3.541,3.541,0,0,1,2.014-1.406,15.164,15.164,0,0,1,1.611-.452c.39-.834.79-1.674,1.233-2.488-.26.035-.522.068-.784.1-.707.09-1.425.181-2.114.34a13.43,13.43,0,0,1-.98,1.642,2.021,2.021,0,0,1-1.211.858.954.954,0,0,1-.733-.191.918.918,0,0,1-.358-.79,1.932,1.932,0,0,1,.9-1.377,6.648,6.648,0,0,1,1.862-.791c.216-.438.419-.881.619-1.32.054-.118.109-.236.163-.355a3.52,3.52,0,0,1-2.039,1.215l-.335.064-.1-.328a1.2,1.2,0,0,1,.128-.97,2.71,2.71,0,0,1,1.715-1.07c.155-.035.312-.066.469-.1.017-.041.033-.084.048-.126a2.793,2.793,0,0,0-.53-2.681,5.825,5.825,0,0,0-2.134-1.312,12.475,12.475,0,0,1-1.366-.668l.384-.649a12.125,12.125,0,0,0,1.285.626,6.464,6.464,0,0,1,2.4,1.5,3.533,3.533,0,0,1,.787,3.021,12.289,12.289,0,0,1,1.079-1.728,2.794,2.794,0,0,1,1.677-1.2,1.549,1.549,0,0,1,1.3.433,1.131,1.131,0,0,1,.347.991,1.573,1.573,0,0,1-.519.878,6.4,6.4,0,0,1-3.453,1.443c-.217.436-.42.881-.62,1.319-.121.265-.243.532-.368.8.532-.1,1.07-.164,1.6-.231.377-.047.752-.094,1.123-.152l.229-.037a13.77,13.77,0,0,1,2.369-3.033,3.579,3.579,0,0,1,1.929-1.069,1.773,1.773,0,0,1,1.981,1.24,1.6,1.6,0,0,1-.435,1.419,3.981,3.981,0,0,1,3.206-.913,1.182,1.182,0,0,1,.62.295,1.226,1.226,0,0,1-.027,1.566c-1.059,1.715-2.992,2.917-5.747,3.571-.082.2-.164.389-.248.581q-.367.839-.794,1.653a6.07,6.07,0,0,1,3.544,1.113l-.441.611a5.372,5.372,0,0,0-3.519-.963q-.6,1.064-1.3,2.065a3.135,3.135,0,0,1-1.279,1.2A1.586,1.586,0,0,1,541.174,354.467Zm2.234-3.24a5.237,5.237,0,0,0-2.3,1.2c-.316.288-.606.706-.475,1.012.117.275.557.34.855.214a2.51,2.51,0,0,0,.954-.938Q542.952,351.987,543.408,351.227Zm-3.6-2.017c-.323.085-.642.179-.956.288a2.87,2.87,0,0,0-1.6,1.071,1.135,1.135,0,0,0-.072.939.646.646,0,0,0,.382.406c.756.263,1.432-1.013,1.561-1.269C539.359,350.171,539.587,349.692,539.813,349.21Zm2.592-3.519c-.456.793-.866,1.622-1.26,2.453.581-.108,1.162-.2,1.735-.288.793-.123,1.61-.251,2.4-.421a12.434,12.434,0,0,1,1.6-2.974,5.336,5.336,0,0,1,.414-.467,4.665,4.665,0,0,1-.919.507A19.477,19.477,0,0,1,542.405,345.691Zm-4.871.9a5.161,5.161,0,0,0-.95.472,1.221,1.221,0,0,0-.555.775.168.168,0,0,0,.07.16.188.188,0,0,0,.159.039,1.317,1.317,0,0,0,.705-.547C537.167,347.2,537.355,346.9,537.534,346.593Zm12.8-3.251a3.932,3.932,0,0,0-2.859,1.587,10.13,10.13,0,0,0-1.276,2.282,7.685,7.685,0,0,0,4.733-3.094c.168-.272.228-.545.138-.633a.567.567,0,0,0-.24-.092A2.553,2.553,0,0,0,550.333,343.342Zm-3.87-1.7a1.042,1.042,0,0,0-.138.008,2.917,2.917,0,0,0-1.509.871,12.306,12.306,0,0,0-1.873,2.284,18.619,18.619,0,0,0,3.141-1.005c.261-.11,1.557-.7,1.387-1.5A1,1,0,0,0,546.463,341.647ZM538.03,343.7a1.859,1.859,0,0,0-.873.578A2.858,2.858,0,0,0,538.03,343.7Zm4.473-3.4a.73.73,0,0,0-.094.007,2.024,2.024,0,0,0-1.194.91,10.7,10.7,0,0,0-.8,1.233,4.914,4.914,0,0,0,2.48-1.13.872.872,0,0,0,.3-.452.4.4,0,0,0-.134-.34A.814.814,0,0,0,542.5,340.3Z" fill="#dfba7f"/>
    </g>
  </g>
</svg>
